<svg width="110" height="22" viewBox="0 0 110 22" fill="none" xmlns="http://www.w3.org/2000/svg">
<path d="M9.78 12.9H3.7L2.58 16H0.66L5.7 2.14H7.8L12.82 16H10.9L9.78 12.9ZM9.26 11.42L6.74 4.38L4.22 11.42H9.26ZM16.8366 1.2V16H15.0166V1.2H16.8366ZM19.2584 10.48C19.2584 9.36 19.4851 8.38 19.9384 7.54C20.3918 6.68667 21.0118 6.02667 21.7984 5.56C22.5984 5.09333 23.4918 4.86 24.4784 4.86C25.3318 4.86 26.1251 5.06 26.8584 5.46C27.5918 5.84667 28.1518 6.36 28.5384 7V1.2H30.3784V16H28.5384V13.94C28.1784 14.5933 27.6451 15.1333 26.9384 15.56C26.2318 15.9733 25.4051 16.18 24.4584 16.18C23.4851 16.18 22.5984 15.94 21.7984 15.46C21.0118 14.98 20.3918 14.3067 19.9384 13.44C19.4851 12.5733 19.2584 11.5867 19.2584 10.48ZM28.5384 10.5C28.5384 9.67333 28.3718 8.95333 28.0384 8.34C27.7051 7.72667 27.2518 7.26 26.6784 6.94C26.1184 6.60667 25.4984 6.44 24.8184 6.44C24.1384 6.44 23.5184 6.6 22.9584 6.92C22.3984 7.24 21.9518 7.70667 21.6184 8.32C21.2851 8.93333 21.1184 9.65333 21.1184 10.48C21.1184 11.32 21.2851 12.0533 21.6184 12.68C21.9518 13.2933 22.3984 13.7667 22.9584 14.1C23.5184 14.42 24.1384 14.58 24.8184 14.58C25.4984 14.58 26.1184 14.42 26.6784 14.1C27.2518 13.7667 27.7051 13.2933 28.0384 12.68C28.3718 12.0533 28.5384 11.3267 28.5384 10.5ZM34.3941 3.26C34.0474 3.26 33.7541 3.14 33.5141 2.9C33.2741 2.66 33.1541 2.36667 33.1541 2.02C33.1541 1.67333 33.2741 1.38 33.5141 1.14C33.7541 0.899999 34.0474 0.779999 34.3941 0.779999C34.7274 0.779999 35.0074 0.899999 35.2341 1.14C35.4741 1.38 35.5941 1.67333 35.5941 2.02C35.5941 2.36667 35.4741 2.66 35.2341 2.9C35.0074 3.14 34.7274 3.26 34.3941 3.26ZM35.2741 5.04V16H33.4541V5.04H35.2741ZM37.6959 10.48C37.6959 9.36 37.9226 8.38 38.3759 7.54C38.8293 6.68667 39.4493 6.02667 40.2359 5.56C41.0359 5.09333 41.9226 4.86 42.8959 4.86C43.8559 4.86 44.6893 5.06667 45.3959 5.48C46.1026 5.89333 46.6293 6.41333 46.9759 7.04V5.04H48.8159V16H46.9759V13.96C46.6159 14.6 46.0759 15.1333 45.3559 15.56C44.6493 15.9733 43.8226 16.18 42.8759 16.18C41.9026 16.18 41.0226 15.94 40.2359 15.46C39.4493 14.98 38.8293 14.3067 38.3759 13.44C37.9226 12.5733 37.6959 11.5867 37.6959 10.48ZM46.9759 10.5C46.9759 9.67333 46.8093 8.95333 46.4759 8.34C46.1426 7.72667 45.6893 7.26 45.1159 6.94C44.5559 6.60667 43.9359 6.44 43.2559 6.44C42.5759 6.44 41.9559 6.6 41.3959 6.92C40.8359 7.24 40.3893 7.70667 40.0559 8.32C39.7226 8.93333 39.5559 9.65333 39.5559 10.48C39.5559 11.32 39.7226 12.0533 40.0559 12.68C40.3893 13.2933 40.8359 13.7667 41.3959 14.1C41.9559 14.42 42.5759 14.58 43.2559 14.58C43.9359 14.58 44.5559 14.42 45.1159 14.1C45.6893 13.7667 46.1426 13.2933 46.4759 12.68C46.8093 12.0533 46.9759 11.3267 46.9759 10.5ZM57.2316 4.84C58.5649 4.84 59.6449 5.24667 60.4716 6.06C61.2982 6.86 61.7116 8.02 61.7116 9.54V16H59.9116V9.8C59.9116 8.70667 59.6382 7.87333 59.0916 7.3C58.5449 6.71333 57.7982 6.42 56.8516 6.42C55.8916 6.42 55.1249 6.72 54.5516 7.32C53.9916 7.92 53.7116 8.79333 53.7116 9.94V16H51.8916V5.04H53.7116V6.6C54.0716 6.04 54.5582 5.60667 55.1716 5.3C55.7982 4.99333 56.4849 4.84 57.2316 4.84ZM68.5645 16.18C67.7245 16.18 66.9712 16.04 66.3045 15.76C65.6379 15.4667 65.1112 15.0667 64.7245 14.56C64.3379 14.04 64.1245 13.4467 64.0845 12.78H65.9645C66.0179 13.3267 66.2712 13.7733 66.7245 14.12C67.1912 14.4667 67.7979 14.64 68.5445 14.64C69.2379 14.64 69.7845 14.4867 70.1845 14.18C70.5845 13.8733 70.7845 13.4867 70.7845 13.02C70.7845 12.54 70.5712 12.1867 70.1445 11.96C69.7179 11.72 69.0579 11.4867 68.1645 11.26C67.3512 11.0467 66.6845 10.8333 66.1645 10.62C65.6579 10.3933 65.2179 10.0667 64.8445 9.64C64.4845 9.2 64.3045 8.62667 64.3045 7.92C64.3045 7.36 64.4712 6.84667 64.8045 6.38C65.1379 5.91333 65.6112 5.54667 66.2245 5.28C66.8379 5 67.5379 4.86 68.3245 4.86C69.5379 4.86 70.5179 5.16667 71.2645 5.78C72.0112 6.39333 72.4112 7.23333 72.4645 8.3H70.6445C70.6045 7.72667 70.3712 7.26667 69.9445 6.92C69.5312 6.57333 68.9712 6.4 68.2645 6.4C67.6112 6.4 67.0912 6.54 66.7045 6.82C66.3179 7.1 66.1245 7.46667 66.1245 7.92C66.1245 8.28 66.2379 8.58 66.4645 8.82C66.7045 9.04667 66.9979 9.23333 67.3445 9.38C67.7045 9.51333 68.1979 9.66667 68.8245 9.84C69.6112 10.0533 70.2512 10.2667 70.7445 10.48C71.2379 10.68 71.6579 10.9867 72.0045 11.4C72.3645 11.8133 72.5512 12.3533 72.5645 13.02C72.5645 13.62 72.3979 14.16 72.0645 14.64C71.7312 15.12 71.2579 15.5 70.6445 15.78C70.0445 16.0467 69.3512 16.18 68.5645 16.18ZM84.5738 5.04L77.9738 21.16H76.0938L78.2538 15.88L73.8338 5.04H75.8538L79.2938 13.92L82.6938 5.04H84.5738ZM85.7233 10.48C85.7233 9.36 85.9499 8.38 86.4033 7.54C86.8566 6.68667 87.4766 6.02667 88.2633 5.56C89.0633 5.09333 89.9499 4.86 90.9233 4.86C91.8833 4.86 92.7166 5.06667 93.4233 5.48C94.1299 5.89333 94.6566 6.41333 95.0033 7.04V5.04H96.8433V16H95.0033V13.96C94.6433 14.6 94.1033 15.1333 93.3833 15.56C92.6766 15.9733 91.8499 16.18 90.9033 16.18C89.9299 16.18 89.0499 15.94 88.2633 15.46C87.4766 14.98 86.8566 14.3067 86.4033 13.44C85.9499 12.5733 85.7233 11.5867 85.7233 10.48ZM95.0033 10.5C95.0033 9.67333 94.8366 8.95333 94.5033 8.34C94.1699 7.72667 93.7166 7.26 93.1433 6.94C92.5833 6.60667 91.9633 6.44 91.2833 6.44C90.6033 6.44 89.9833 6.6 89.4233 6.92C88.8633 7.24 88.4166 7.70667 88.0833 8.32C87.7499 8.93333 87.5833 9.65333 87.5833 10.48C87.5833 11.32 87.7499 12.0533 88.0833 12.68C88.4166 13.2933 88.8633 13.7667 89.4233 14.1C89.9833 14.42 90.6033 14.58 91.2833 14.58C91.9633 14.58 92.5833 14.42 93.1433 14.1C93.7166 13.7667 94.1699 13.2933 94.5033 12.68C94.8366 12.0533 95.0033 11.3267 95.0033 10.5ZM105.359 4.84C106.186 4.84 106.932 5.02 107.599 5.38C108.266 5.72667 108.786 6.25333 109.159 6.96C109.546 7.66667 109.739 8.52667 109.739 9.54V16H107.939V9.8C107.939 8.70667 107.666 7.87333 107.119 7.3C106.572 6.71333 105.826 6.42 104.879 6.42C103.919 6.42 103.152 6.72 102.579 7.32C102.019 7.92 101.739 8.79333 101.739 9.94V16H99.9189V1.2H101.739V6.6C102.099 6.04 102.592 5.60667 103.219 5.3C103.859 4.99333 104.572 4.84 105.359 4.84Z" fill="white"/>
</svg>
